<svg xmlns="http://www.w3.org/2000/svg" x="0px" y="0px" width="100" height="100" viewBox="0 0 64 64">
<path fill="#c5e4fa" d="M31,5C15.536,5,3,17.536,3,33s12.536,28,28,28s28-12.536,28-28S46.464,5,31,5z"></path><path fill="#e3f2ff" d="M12.71,54.29c2.65,2.521,5.769,4.498,9.18,5.82L56,26v-6.43c-1.056-1.75-2.3-3.38-3.71-4.86 L12.71,54.29z M10.76,52.24L50,13h-6L8.22,48.78C8.977,49.996,9.826,51.153,10.76,52.24z M7.79,45.21L41,12l-3-2L6.36,41.64 C6.754,42.862,7.232,44.054,7.79,45.21z"></path><path fill="#f9e3ae" d="M31,5C15.536,5,3,17.536,3,33s12.536,28,28,28s28-12.536,28-28S46.464,5,31,5z M31,55 C18.85,55.002,8.998,45.154,8.996,33.003C8.995,20.853,18.843,11.002,30.993,11c5.651-0.001,11.085,2.173,15.177,6.07l0.68,0.67 c0.26,0.267,0.51,0.54,0.75,0.82c7.975,9.167,7.009,23.063-2.158,31.038C41.438,53.082,36.308,55.001,31,55z"></path><path fill="#f6d397" d="M31,55C18.85,55,9,45.15,9,33H7.34c-2.209-0.007-4.006,1.777-4.013,3.986 c-0.001,0.243,0.02,0.485,0.063,0.724c2.588,15.246,17.046,25.507,32.292,22.918C47.416,58.636,56.608,49.444,58.6,37.71 c0.392-2.174-1.052-4.254-3.226-4.646C55.138,33.021,54.899,33,54.66,33H53C53,45.15,43.15,55,31,55z"></path><path fill="none" stroke="#8d6c9f" stroke-linecap="round" stroke-miterlimit="10" stroke-width="2" d="M44.773,15.844 C49.789,19.876,53,26.063,53,33c0,12.15-9.85,22-22,22S9,45.15,9,33s9.85-22,22-22c1.139,0,2.258,0.087,3.35,0.253"></path><path fill="none" stroke="#8d6c9f" stroke-linecap="round" stroke-miterlimit="10" stroke-width="2" d="M38.663,12.371 c0.719,0.267,1.419,0.57,2.1,0.908"></path><circle cx="31" cy="33" r="28" fill="none" stroke="#8d6c9f" stroke-miterlimit="10" stroke-width="2"></circle>
</svg>